<?xml version="1.0" encoding="utf-8"?>
<!-- Generator: Adobe Illustrator 21.1.0, SVG Export Plug-In . SVG Version: 6.00 Build 0)  -->
<svg version="1.1" id="Warstwa_1" xmlns="http://www.w3.org/2000/svg" xmlns:xlink="http://www.w3.org/1999/xlink" x="0px" y="0px"
	 viewBox="0 0 270.6 266.6" style="enable-background:new 0 0 270.6 266.6;" xml:space="preserve">
<style type="text/css">
	.st0{clip-path:url(#SVGID_2_);fill:#00A79D;}
	.st1{clip-path:url(#SVGID_2_);}
	.st2{clip-path:url(#SVGID_4_);fill:#00A79D;}
	.st3{clip-path:url(#SVGID_4_);fill:#BCBEC0;}
	.st4{clip-path:url(#SVGID_6_);fill:url(#SVGID_7_);}
</style>
<g id="Kompozycja_1">
	<g>
		<defs>
			<rect id="SVGID_1_" x="10" y="8.3" width="250.5" height="247.3"/>
		</defs>
		<clipPath id="SVGID_2_">
			<use xlink:href="#SVGID_1_"  style="overflow:visible;"/>
		</clipPath>
		<polygon class="st0" points="10,191.5 10,224.6 32.1,224.6 32.1,218.2 17.5,218.2 17.5,191.5 		"/>
		<g class="st1">
			<defs>
				<rect id="SVGID_3_" x="10" y="8.3" width="250.5" height="247.3"/>
			</defs>
			<clipPath id="SVGID_4_">
				<use xlink:href="#SVGID_3_"  style="overflow:visible;"/>
			</clipPath>
			<path class="st2" d="M67.4,208c0,2.8-0.4,5.3-1.3,7.5c-0.8,2.1-2,3.9-3.5,5.4c-1.5,1.4-3.2,2.5-5.2,3.3c-2,0.7-4.2,1.1-6.5,1.1
				c-2.3,0-4.4-0.4-6.4-1.1c-2-0.7-3.7-1.8-5.2-3.3c-1.5-1.4-2.7-3.2-3.5-5.4c-0.9-2.1-1.3-4.6-1.3-7.5c0-2.8,0.4-5.3,1.3-7.5
				c0.9-2.1,2.1-4,3.6-5.4c1.5-1.5,3.3-2.6,5.2-3.3c2-0.7,4.1-1.1,6.3-1.1c2.3,0,4.4,0.4,6.4,1.1c2,0.7,3.7,1.8,5.2,3.3
				c1.5,1.5,2.7,3.3,3.5,5.4C66.9,202.7,67.4,205.2,67.4,208 M42.2,208c0,1.6,0.2,3.1,0.6,4.4c0.4,1.3,1,2.4,1.7,3.4
				c0.7,0.9,1.7,1.7,2.7,2.2c1.1,0.5,2.3,0.8,3.7,0.8c1.4,0,2.6-0.3,3.7-0.8c1.1-0.5,2-1.2,2.8-2.2c0.7-0.9,1.3-2.1,1.7-3.4
				c0.4-1.3,0.6-2.8,0.6-4.4s-0.2-3.1-0.6-4.4c-0.4-1.3-1-2.5-1.7-3.4c-0.7-0.9-1.7-1.7-2.8-2.2c-1.1-0.5-2.3-0.8-3.7-0.8
				c-1.4,0-2.6,0.3-3.7,0.8c-1.1,0.5-2,1.3-2.7,2.2c-0.7,0.9-1.3,2.1-1.7,3.4C42.4,205,42.2,206.4,42.2,208"/>
			<path class="st2" d="M89.7,197.2c-3.5,0-6,1-7.5,2.9c-1.5,1.9-2.3,4.6-2.3,7.9c0,1.6,0.2,3.1,0.6,4.4c0.4,1.3,1,2.5,1.7,3.4
				c0.8,1,1.7,1.7,2.9,2.2c1.1,0.5,2.5,0.8,4,0.8c0.8,0,1.5,0,2.1,0c0.6,0,1.1-0.1,1.5-0.2v-11.5h7.4v16.4c-0.9,0.4-2.3,0.7-4.3,1.1
				c-2,0.4-4.4,0.6-7.3,0.6c-2.5,0-4.7-0.4-6.7-1.1c-2-0.8-3.7-1.9-5.2-3.3c-1.4-1.5-2.5-3.3-3.3-5.4c-0.8-2.1-1.2-4.6-1.2-7.3
				c0-2.8,0.4-5.2,1.3-7.4c0.9-2.1,2-3.9,3.5-5.4c1.5-1.5,3.2-2.6,5.3-3.4c2-0.8,4.2-1.1,6.5-1.1c1.6,0,3,0.1,4.2,0.3
				c1.3,0.2,2.3,0.4,3.2,0.7c0.9,0.3,1.7,0.5,2.2,0.8c0.6,0.3,1,0.5,1.3,0.7l-2.1,6c-1-0.5-2.2-1-3.5-1.4
				C92.7,197.4,91.2,197.2,89.7,197.2"/>
			<path class="st2" d="M138.5,208c0,2.8-0.4,5.3-1.3,7.5c-0.8,2.1-2,3.9-3.5,5.4c-1.5,1.4-3.2,2.5-5.2,3.3c-2,0.7-4.2,1.1-6.5,1.1
				c-2.3,0-4.4-0.4-6.4-1.1c-2-0.7-3.8-1.8-5.2-3.3c-1.5-1.4-2.7-3.2-3.5-5.4c-0.9-2.1-1.3-4.6-1.3-7.5c0-2.8,0.4-5.3,1.3-7.5
				c0.9-2.1,2.1-4,3.6-5.4c1.5-1.5,3.3-2.6,5.2-3.3c2-0.7,4.1-1.1,6.3-1.1c2.3,0,4.4,0.4,6.4,1.1c2,0.7,3.8,1.8,5.2,3.3
				c1.5,1.5,2.7,3.3,3.5,5.4C138,202.7,138.5,205.2,138.5,208 M113.3,208c0,1.6,0.2,3.1,0.6,4.4c0.4,1.3,1,2.4,1.7,3.4
				c0.7,0.9,1.7,1.7,2.7,2.2c1.1,0.5,2.3,0.8,3.7,0.8c1.4,0,2.6-0.3,3.7-0.8c1.1-0.5,2-1.2,2.8-2.2c0.7-0.9,1.3-2.1,1.7-3.4
				c0.4-1.3,0.6-2.8,0.6-4.4s-0.2-3.1-0.6-4.4c-0.4-1.3-1-2.5-1.7-3.4c-0.7-0.9-1.7-1.7-2.8-2.2c-1.1-0.5-2.3-0.8-3.7-0.8
				c-1.4,0-2.6,0.3-3.7,0.8c-1.1,0.5-2,1.3-2.7,2.2c-0.7,0.9-1.3,2.1-1.7,3.4C113.5,205,113.3,206.4,113.3,208"/>
			<polygon class="st2" points="168.1,191.5 168.1,197.8 158.1,197.8 158.1,224.6 150.7,224.6 150.7,197.8 140.7,197.8 140.7,191.5 
							"/>
			<polygon class="st2" points="172.8,224.6 172.8,191.5 195.1,191.5 195.1,197.7 180.3,197.7 180.3,204.2 193.5,204.2 193.5,210.3 
				180.3,210.3 180.3,218.3 196.2,218.3 196.2,224.6 			"/>
			<path class="st2" d="M221.7,224.6c-0.9-1.8-1.9-3.7-3.1-5.6c-1.1-1.9-2.4-3.5-3.8-4.8c-0.4,0.5-1,1.2-1.7,2.1
				c-0.7,0.9-1.4,1.8-2,2.8c-0.7,1-1.3,2-1.9,3.1c-0.6,1.1-1,1.9-1.3,2.5h-8.5c1.4-2.6,3-5.3,4.9-8c1.9-2.8,4-5.7,6.3-8.8
				l-10.8-16.3h9l6.3,9.6l6.4-9.6h8.5l-10.7,16c2.8,3.5,5.1,6.8,6.9,9.7c1.8,2.9,3.3,5.4,4.3,7.4H221.7z"/>
			<polygon class="st2" points="260.6,191.5 260.6,197.8 250.6,197.8 250.6,224.6 243.2,224.6 243.2,197.8 233.2,197.8 233.2,191.5 
							"/>
			<path class="st3" d="M32.3,252.8c1.2,0,2-0.2,2.5-0.6c0.5-0.4,0.8-0.9,0.8-1.7c0-0.4-0.1-0.8-0.3-1.1c-0.2-0.3-0.4-0.6-0.8-0.8
				c-0.3-0.2-0.7-0.5-1.2-0.7c-0.5-0.2-1-0.4-1.6-0.6c-0.6-0.2-1.2-0.5-1.8-0.7c-0.6-0.3-1.1-0.6-1.5-1c-0.4-0.4-0.8-0.9-1-1.4
				c-0.3-0.5-0.4-1.2-0.4-2c0-1.6,0.6-2.9,1.7-3.8c1.1-0.9,2.6-1.4,4.5-1.4c1.1,0,2.1,0.1,2.9,0.4c0.9,0.2,1.5,0.5,2,0.8l-1,2.6
				c-0.6-0.3-1.2-0.6-1.9-0.7c-0.7-0.2-1.4-0.3-2.1-0.3c-0.9,0-1.5,0.2-2,0.5c-0.5,0.4-0.7,0.9-0.7,1.5c0,0.4,0.1,0.7,0.2,1
				c0.2,0.3,0.4,0.5,0.7,0.8c0.3,0.2,0.6,0.4,1,0.6c0.4,0.2,0.8,0.4,1.3,0.5c0.8,0.3,1.6,0.6,2.2,0.9c0.7,0.3,1.2,0.7,1.7,1.1
				c0.4,0.4,0.8,0.9,1,1.5c0.2,0.6,0.4,1.3,0.4,2.1c0,1.6-0.6,2.8-1.7,3.7c-1.1,0.9-2.8,1.3-5,1.3c-0.7,0-1.4,0-2-0.1
				c-0.6-0.1-1.1-0.2-1.6-0.3c-0.5-0.1-0.9-0.3-1.2-0.4c-0.3-0.1-0.6-0.3-0.8-0.4l0.9-2.6c0.5,0.3,1.1,0.5,1.9,0.8
				C30.2,252.7,31.2,252.8,32.3,252.8"/>
			<polygon class="st3" points="58.9,252.4 58.9,255.2 47.7,255.2 47.7,237.5 50.9,237.5 50.9,252.4 			"/>
			<path class="st3" d="M83.7,246.4c0,1.5-0.2,2.9-0.7,4c-0.4,1.2-1.1,2.1-1.8,2.9c-0.8,0.8-1.7,1.4-2.7,1.7c-1,0.4-2.1,0.6-3.3,0.6
				c-1.2,0-2.3-0.2-3.3-0.6c-1-0.4-2-1-2.7-1.7c-0.8-0.8-1.4-1.7-1.8-2.9c-0.5-1.2-0.7-2.5-0.7-4c0-1.5,0.2-2.8,0.7-4
				c0.5-1.1,1.1-2.1,1.9-2.9c0.8-0.8,1.7-1.4,2.7-1.8c1-0.4,2.1-0.6,3.3-0.6c1.2,0,2.3,0.2,3.3,0.6s1.9,1,2.7,1.8
				c0.8,0.8,1.4,1.7,1.8,2.9C83.4,243.5,83.7,244.8,83.7,246.4 M69.9,246.4c0,1,0.1,1.8,0.4,2.6c0.2,0.8,0.6,1.5,1,2
				c0.4,0.6,1,1,1.6,1.3c0.6,0.3,1.4,0.5,2.2,0.5c0.8,0,1.5-0.2,2.2-0.5c0.6-0.3,1.2-0.7,1.6-1.3c0.4-0.6,0.8-1.2,1-2
				c0.2-0.8,0.4-1.7,0.4-2.6c0-1-0.1-1.9-0.4-2.6c-0.2-0.8-0.6-1.5-1-2c-0.5-0.6-1-1-1.6-1.3c-0.6-0.3-1.4-0.5-2.2-0.5
				c-0.8,0-1.5,0.2-2.2,0.5c-0.6,0.3-1.2,0.7-1.6,1.3c-0.5,0.6-0.8,1.2-1,2C70,244.5,69.9,245.4,69.9,246.4"/>
			<path class="st3" d="M101.4,240c-1.8,0-3.2,0.6-4.2,1.7c-1,1.1-1.4,2.7-1.4,4.7c0,1,0.1,1.8,0.3,2.6c0.2,0.8,0.6,1.5,1,2
				c0.5,0.6,1,1,1.7,1.3c0.7,0.3,1.5,0.5,2.4,0.5c0.6,0,1,0,1.5-0.1c0.4,0,0.7-0.1,1-0.2v-6.4h3.2v8.5c-0.4,0.2-1.2,0.4-2.2,0.6
				c-1.1,0.2-2.3,0.3-3.6,0.3c-1.3,0-2.4-0.2-3.5-0.6c-1.1-0.4-1.9-1-2.7-1.8c-0.7-0.8-1.3-1.7-1.7-2.9c-0.4-1.1-0.6-2.4-0.6-3.9
				c0-1.5,0.2-2.8,0.7-3.9c0.5-1.1,1.1-2.1,1.8-2.9c0.8-0.8,1.7-1.4,2.8-1.8c1.1-0.4,2.2-0.6,3.4-0.6c0.8,0,1.5,0.1,2.2,0.2
				c0.6,0.1,1.2,0.2,1.6,0.4c0.5,0.1,0.8,0.3,1.1,0.4c0.3,0.2,0.5,0.3,0.6,0.3l-1,2.6c-0.5-0.3-1.1-0.6-1.9-0.8
				C103,240.1,102.2,240,101.4,240"/>
			<path class="st3" d="M128.2,255.2c-0.2-0.7-0.5-1.4-0.7-2.1c-0.3-0.7-0.5-1.4-0.7-2.1h-7.5c-0.2,0.7-0.5,1.4-0.7,2.1
				c-0.2,0.7-0.5,1.4-0.7,2.1h-3.3c0.7-1.9,1.3-3.6,1.9-5.2c0.6-1.6,1.2-3.1,1.7-4.5c0.6-1.4,1.1-2.8,1.7-4.1
				c0.6-1.3,1.1-2.6,1.7-3.8h3.1c0.6,1.3,1.2,2.5,1.7,3.8c0.6,1.3,1.1,2.7,1.7,4.1c0.6,1.4,1.2,2.9,1.8,4.5c0.6,1.6,1.2,3.3,1.9,5.2
				H128.2z M123,241c-0.4,0.9-0.8,2-1.3,3.3c-0.5,1.3-1,2.7-1.6,4.2h5.8c-0.5-1.5-1.1-2.9-1.6-4.2C123.8,242.9,123.4,241.8,123,241"
				/>
			<path class="st3" d="M151.7,255.2c-0.6-1-1.2-2-1.9-3.1c-0.7-1.1-1.5-2.2-2.2-3.4c-0.8-1.1-1.5-2.2-2.3-3.3
				c-0.8-1.1-1.5-2-2.3-2.9v12.7h-3.2v-17.7h2.6c0.7,0.7,1.4,1.6,2.2,2.5c0.8,1,1.6,2,2.4,3c0.8,1.1,1.6,2.1,2.3,3.2
				c0.7,1.1,1.4,2.1,2,3v-11.7h3.2v17.7H151.7z"/>
			<polygon class="st3" points="175.5,237.5 178.7,237.5 178.7,255.2 175.5,255.2 175.5,247.4 167.8,247.4 167.8,255.2 164.6,255.2 
				164.6,237.5 167.8,237.5 167.8,244.6 175.5,244.6 			"/>
			<polygon class="st3" points="188.9,255.2 188.9,237.5 200.2,237.5 200.2,240.3 192.1,240.3 192.1,244.6 199.3,244.6 199.3,247.3 
				192.1,247.3 192.1,252.5 200.8,252.5 200.8,255.2 			"/>
			<path class="st3" d="M214.6,237.4c2.5,0,4.5,0.5,5.8,1.4c1.3,0.9,2,2.4,2,4.3c0,2.4-1.2,4-3.5,4.9c0.3,0.4,0.7,0.9,1.1,1.4
				c0.4,0.6,0.8,1.2,1.2,1.8c0.4,0.7,0.8,1.3,1.2,2c0.4,0.7,0.7,1.4,1,2H220c-0.3-0.6-0.7-1.2-1-1.9c-0.4-0.6-0.8-1.2-1.1-1.8
				c-0.4-0.6-0.8-1.1-1.1-1.7c-0.4-0.5-0.7-1-1-1.4c-0.2,0-0.4,0-0.6,0h-0.5H213v6.7h-3.2v-17.4c0.8-0.2,1.6-0.3,2.5-0.3
				C213.1,237.4,213.9,237.4,214.6,237.4 M214.8,240.1c-0.7,0-1.3,0-1.9,0.1v5.7h1.4c0.8,0,1.5,0,2.1-0.1c0.6-0.1,1.1-0.2,1.5-0.5
				c0.4-0.2,0.7-0.5,0.9-0.9c0.2-0.4,0.3-0.9,0.3-1.4c0-0.5-0.1-1-0.3-1.4c-0.2-0.4-0.5-0.7-0.9-0.9c-0.4-0.2-0.8-0.4-1.4-0.5
				C216,240.2,215.5,240.1,214.8,240.1"/>
			<polygon class="st3" points="232,255.2 232,237.5 243.3,237.5 243.3,240.3 235.2,240.3 235.2,244.6 242.4,244.6 242.4,247.3 
				235.2,247.3 235.2,252.5 243.9,252.5 243.9,255.2 			"/>
		</g>
		<g class="st1">
			<defs>
				<path id="SVGID_5_" d="M118.9,87.1l16.4-16.4l16.4,16.4l-16.4,16.4L118.9,87.1z M33.7,87.1l59-59.1l11.5,11.5L56.7,87.1
					l47.5,47.6l-11.5,11.5L33.7,87.1z M166.4,134.7L214,87.1l-47.5-47.6L177.9,28l59,59.1l-59,59.1L166.4,134.7z M177.9,8.3
					l-21.3,21.3L135.3,8.3l-9.5,9.5l68.5,69.3l-37.7,37.8l-11.5-11.5l26.2-26.3L92.7,8.3L14.1,87.1l78.6,78.8l21.3-21.3l21.3,21.3
					l9.8-9.8l-68.8-69L114,49.3l11.5,11.5L99.2,87.1l78.6,78.8l78.6-78.8L177.9,8.3z"/>
			</defs>
			<clipPath id="SVGID_6_">
				<use xlink:href="#SVGID_5_"  style="overflow:visible;"/>
			</clipPath>
			
				<linearGradient id="SVGID_7_" gradientUnits="userSpaceOnUse" x1="-257.9109" y1="-92.3111" x2="-256.9849" y2="-92.3111" gradientTransform="matrix(-261.3402 0 0 261.3402 -67144.7656 24211.6934)">
				<stop  offset="0" style="stop-color:#00A79D"/>
				<stop  offset="1" style="stop-color:#262262"/>
			</linearGradient>
			<rect x="14.1" y="8.3" class="st4" width="242.5" height="157.6"/>
		</g>
	</g>
</g>
</svg>
